# xmcd CD database file
#
# Track frame offsets:
#	165
#	15910
#	35185
#	52575
#	62955
#	80652
#	90127
#	101870
#	122552
#	134027
#	149235
#	172257
#	179480
#	192225
#	225135
#
# Disc length: 3271 seconds
#
# Revision: 0
# Processed by: cddbd v1.4PL0 Copyright (c) Steve Scherf et al.
# Submitted via: CDex 1.50
#
DISCID=d00cc50f
DTITLE=Carmen McRae - Woman Talk
DYEAR=1991
DGENRE=Jazz
TTITLE0=Sometimes I'm Happy
TTITLE1=Don't Explain
TTITLE2=Woman Talk
TTITLE3=Kick Off Your Shoes
TTITLE4=The Shadow of Your Smile
TTITLE5=The Sweetest Sounds
TTITLE6=Where Would You Be Without Me
TTITLE7=Feelin' Good
TTITLE8=Run, Run, Run
TTITLE9=No More
TTITLE10=Look At That Face
TTITLE11=I Wish I Were In Love Again
TTITLE12=You Better Go Now
TTITLE13=Love For Sale
TTITLE14=If I Could Be With You One Hour
EXTD=YEAR: 1991
EXTT0=
EXTT1=
EXTT2=
EXTT3=
EXTT4=
EXTT5=
EXTT6=
EXTT7=
EXTT8=
EXTT9=
EXTT10=
EXTT11=
EXTT12=
EXTT13=
EXTT14=
PLAYORDER=
